<svg width="73" height="80" fill="none" xmlns="http://www.w3.org/2000/svg"><path d="M34.453 67.92c5.266.92 12.081 2.505 15.375 1.084 3.294-1.42 9.09-6.908 8.155-10.395 2.38-2.773 7.018-3.643 2.553-13.873 3.344-3.96 4.236-3.247-2.553-13.813-5.431-8.452-15.95-3.667-19.028 0 4.008-9.496.582-15.349-2.652-19.054-3.233-3.704-6.555-5.056-12.764 1.049-6.21 6.104 7.32 17.05 1.85 21.026-8.06 5.858-14.463 7.141-13.69 13.566.66 5.47 4.542 14.965 6.784 18.129 2.242 3.164 10.705 1.362 15.97 2.282Z" fill="#FDCB6E"/><path d="M22.312 36.908a12.488 12.488 0 0 1 3.929-1.36 78.604 78.604 0 0 0-3.93 1.36c-5.376 2.954-8.14 9.787-5.39 17.492 4.2 11.768 5.776 11.451 12.733 13.666 6.956 2.214-7.81 2.846-11.223-1.076-3.412-3.922-9.253-21.7-6.169-24.863 1.763-1.807 6.286-3.808 10.05-5.22Z" fill="#FEAC73"/><path fill-rule="evenodd" clip-rule="evenodd" d="M61.234 51.75c-.5-2.08-2.69-4.57-7.988-4.912-5.332-.344-7.564 1.635-8.367 3.334a4.59 4.59 0 0 0-.384 2.728c.152.854.52 1.335.782 1.512l-2.062 3.071c-1.334-.895-2.092-2.413-2.363-3.933a8.287 8.287 0 0 1 .682-4.958c1.62-3.432 5.544-5.86 11.95-5.446 6.441.415 7.923 3.742 8.903 7.817.957 3.984-.373 6.115-4.687 7.646l.467-1.461c2.502-.889 3.59-3.226 3.067-5.398Z" fill="#FEAC73"/><path fill-rule="evenodd" clip-rule="evenodd" d="M53.246 55.578c-5.332-.343-7.949 1.394-8.752 3.093-.437.926-.146 2.15 0 2.97.153.853.52 1.335.783 1.511l-1.204 1.069c-1.334-.896-2.442-1.44-2.713-2.96-.277-1.554-.6-2.289.174-3.928 1.62-3.432 3.224-4.748 9.63-4.335 8.18.527 9.743 9.558 5.18 11.716 1.465-4.59 1.973-7.381-3.098-9.136ZM43.645 44.148c.072.856.489 1.781 1.518 2.657l-2.398 2.817c-1.683-1.432-2.645-3.224-2.807-5.168-.16-1.917.476-3.784 1.614-5.387 2.261-3.185 6.621-5.547 12.023-5.968 5.55-.433 7.485 1.746 9.038 5.285 1.56 3.553.491 6.069-3.38 8.422V45.44c2.41-1.465 2.879-3.712 2.121-5.438-.763-1.739-3.078-3.559-7.492-3.215-4.562.356-7.802 2.321-9.293 4.422-.738 1.04-1.017 2.057-.944 2.939Z" fill="#FEAC73"/><path fill-rule="evenodd" clip-rule="evenodd" d="M40.495 38.664c.278.936 1.047 2.013 2.891 2.978L41.67 44.92c-2.497-1.306-4.093-3.083-4.722-5.204-.62-2.093-.206-4.207.68-6.034 1.734-3.575 5.554-6.656 9.269-7.65 3.739-1.003 5.109-.202 7.905 1.5 1.4.852 3.108 1.751 3.761 3.198.695 1.539 1.027 2.965 0 4.567l-1.258-1.377c.319-.497.318-.909.113-1.363-.246-.546-.84-1.214-1.848-1.827-2.017-1.228-5.045-1.84-7.716-1.125-2.696.722-5.64 3.101-6.897 5.692-.61 1.257-.748 2.403-.462 3.367Z" fill="#FEAC73"/><path fill-rule="evenodd" clip-rule="evenodd" d="M32.15 11.335c-2.538-.75-5.33-.36-7.755 2.328-1.038 1.152-1.297 2.39-1.1 3.864.21 1.585.936 3.327 1.846 5.305l.344.74c.78 1.679 1.638 3.523 2.094 5.28.539 2.078.62 4.413-.86 6.511l-.061.087-.071.08c-2.898 3.24-5.725 3.866-7.855 4.337l-.355.08c-1.066.24-1.749.442-2.328.833-.534.36-1.131.99-1.71 2.359-.54 1.272-.817 3.191-.737 5.522.08 2.299.501 4.855 1.236 7.316.736 2.466 1.766 4.772 3.023 6.603 1.266 1.845 2.676 3.086 4.13 3.643 1.737.666 2.977.834 3.967.81 1.018-.026 1.87-.252 2.97-.545 1.078-.287 2.366-.63 3.961-.663 1.572-.033 3.353.234 5.546 1 2.317.393 4.82.544 7.1.443 2.364-.104 4.338-.472 5.6-1.016 1.237-.534 2.724-1.675 3.814-3.126 1.096-1.46 1.605-2.974 1.393-4.287-.214-1.322-1-2.31-2.24-3.012-1.28-.723-2.989-1.095-4.753-1.065-1.769.03-3.404.46-4.532 1.138-1.11.668-1.54 1.43-1.54 2.21 0 1 .264 1.577.553 1.924.296.356.764.645 1.473.798 1.483.322 3.65-.046 5.729-1.098a1.85 1.85 0 0 1 1.67 3.3c-2.552 1.292-5.604 1.973-8.183 1.414-1.323-.287-2.596-.92-3.534-2.048-.945-1.136-1.408-2.604-1.408-4.29 0-2.477 1.503-4.28 3.332-5.38 1.811-1.09 4.12-1.63 6.377-1.668 2.261-.038 4.657.425 6.636 1.544 2.018 1.14 3.645 3.002 4.072 5.643.431 2.67-.652 5.188-2.087 7.099-1.442 1.92-3.428 3.49-5.307 4.301-1.855.8-4.34 1.203-6.902 1.316a38.183 38.183 0 0 1-8.049-.521l-.155-.027-.148-.053c-1.912-.682-3.29-.863-4.38-.84-1.105.023-2.01.252-3.085.539l-.112.03c-1.03.275-2.253.601-3.719.638-1.546.038-3.268-.243-5.383-1.053-2.396-.918-4.342-2.797-5.857-5.004-1.524-2.222-2.7-4.9-3.517-7.639-.82-2.743-1.298-5.612-1.388-8.247-.09-2.603.194-5.126 1.027-7.092.791-1.87 1.791-3.136 3.047-3.983 1.21-.817 2.51-1.133 3.584-1.376l.34-.076c1.96-.436 3.782-.84 5.848-3.11.546-.831.637-1.866.246-3.37-.364-1.405-1.06-2.906-1.856-4.624-.118-.255-.239-.514-.36-.779-.893-1.938-1.86-4.152-2.154-6.362-.31-2.32.113-4.714 2.02-6.83 3.47-3.847 7.781-4.513 11.552-3.4 3.644 1.078 6.796 3.806 8.38 6.81 3.026 5.734 2.28 10.255 1.48 14.798a1.85 1.85 0 1 1-3.645-.642c.784-4.442 1.298-7.87-1.107-12.43-1.13-2.143-3.492-4.2-6.157-4.987Z" fill="#721D0F"/><path fill-rule="evenodd" clip-rule="evenodd" d="M28.545 62.659a1.85 1.85 0 0 1-2.59.374c-3.599-2.691-5.515-7.544-5.768-11.55a1.85 1.85 0 0 1 3.692-.234c.206 3.255 1.795 6.954 4.292 8.82a1.85 1.85 0 0 1 .374 2.59Z" fill="#721D0F"/><path fill-rule="evenodd" clip-rule="evenodd" d="M29.192 15.498a1.85 1.85 0 0 1 2.448-.923c3.295 1.492 5.017 4.873 5.187 7.857a1.85 1.85 0 1 1-3.694.21c-.108-1.902-1.225-3.884-3.018-4.696a1.85 1.85 0 0 1-.923-2.448Z" fill="#fff"/><path fill-rule="evenodd" clip-rule="evenodd" d="M60.124 50.517c-.5-2.08-2.691-4.571-7.988-4.913-5.332-.343-7.565 1.635-8.367 3.335a4.59 4.59 0 0 0-.385 2.728c.152.853.52 1.335.783 1.511l-2.062 3.072c-1.334-.895-2.092-2.414-2.363-3.934a8.287 8.287 0 0 1 .681-4.957c1.621-3.432 5.545-5.86 11.95-5.447 6.442.415 10.369 3.665 11.348 7.74.958 3.984-1.113 8.218-5.426 9.749l-1.239-3.487c2.503-.888 3.59-3.226 3.068-5.397Z" fill="#721D0F"/><path fill-rule="evenodd" clip-rule="evenodd" d="M42.535 42.915c.071.856.488 1.78 1.518 2.657l-2.399 2.817c-1.683-1.433-2.645-3.225-2.806-5.168-.16-1.917.476-3.784 1.614-5.387 2.26-3.186 6.62-5.547 12.022-5.968 5.55-.433 9.614 1.876 11.167 5.416 1.56 3.553.284 7.733-3.586 10.086l-1.922-3.161c2.41-1.465 2.878-3.712 2.12-5.438-.763-1.739-3.078-3.56-7.491-3.215-4.563.356-7.802 2.32-9.293 4.421-.739 1.04-1.017 2.057-.944 2.94Z" fill="#721D0F"/><path fill-rule="evenodd" clip-rule="evenodd" d="M39.386 37.43c.277.937 1.047 2.014 2.89 2.98l-1.715 3.277c-2.497-1.307-4.093-3.083-4.722-5.204-.62-2.093-.206-4.207.68-6.034 1.734-3.575 5.554-6.656 9.268-7.65 3.74-1.003 7.8-.165 10.597 1.537 1.4.852 2.644 2.02 3.297 3.466.695 1.539.656 3.28-.37 4.882l-3.115-1.997c.318-.497.318-.909.113-1.363-.247-.547-.841-1.214-1.848-1.827-2.018-1.228-5.045-1.84-7.716-1.125-2.696.722-5.64 3.101-6.898 5.692-.61 1.257-.747 2.402-.461 3.367Z" fill="#721D0F"/></svg>