<svg width="180" height="120" viewBox="0 0 180 120" fill="none" xmlns="http://www.w3.org/2000/svg">
<path d="M111.743 90.4404C109.289 92.1026 106.202 93.4878 102.442 94.7148L96.1892 96.7728C80.4772 101.839 72.2056 97.6038 67.1002 81.8918L62.0344 66.2588C56.9684 50.5468 61.1636 42.2356 76.8756 37.1698L83.1288 35.1118C84.7516 34.5972 86.295 34.162 87.7594 33.8848C86.572 36.299 85.6222 39.2278 84.8306 42.5918L80.9522 59.1746C77.0736 75.7178 82.179 83.8706 98.6826 87.7888L105.332 89.3718C107.627 89.926 109.764 90.2822 111.743 90.4404Z" fill="#E1E4E5" fill-opacity="0.5"/>
<path d="M137.864 55.018L133.985 71.5612C130.661 85.8484 124.091 91.6268 111.743 90.4394C109.764 90.2812 107.627 89.925 105.331 89.3708L98.6824 87.7878C82.1788 83.8696 77.0734 75.7168 80.9518 59.1736L84.8304 42.5908C85.622 39.2268 86.5718 36.298 87.7592 33.8838C92.3896 24.3062 100.265 21.7338 113.484 24.8602L120.094 26.4038C136.676 30.2824 141.742 38.4748 137.864 55.018Z" fill="#D5D9DE"/>
<path d="M92.2052 70.896L103.639 73.9919M95.1796 59.6065L114.301 64.7542L95.1796 59.6065ZM97.7993 50.371L126.215 58.4312L97.7993 50.371ZM100.797 39.804L129.212 47.8644L100.797 39.804Z" stroke="white" stroke-width="4" stroke-linecap="round" stroke-linejoin="round"/>
<path d="M43.2 38.6608V49.4484C43.2 53.3988 43.2 53.3988 46.9334 55.9166L57.2 61.8422C58.741 62.7322 61.2589 62.7322 62.7999 61.8422L73.0666 55.9166C76.7999 53.3988 76.7999 53.3988 76.7999 49.4484V38.6608C76.7999 34.7104 76.7999 34.7104 73.0666 32.1926L62.7999 26.267C61.2589 25.3772 58.741 25.3772 57.2 26.267L46.9334 32.1926C43.2 34.7104 43.2 34.7104 43.2 38.6608Z" fill="#D5D9DE"/>
<path d="M61.3673 38.5969L62.6045 40.5285C62.7997 40.8325 63.2339 41.1363 63.5595 41.2231L65.7735 41.7875C67.1409 42.1347 67.5099 43.3069 66.6199 44.3921L65.1657 46.1503C64.9487 46.4325 64.7749 46.9317 64.7967 47.2789L64.9269 49.5581C65.0137 50.9689 64.0153 51.6851 62.7129 51.1643L60.5859 50.3177C60.2603 50.1875 59.7177 50.1875 59.3921 50.3177L57.2649 51.1643C55.9625 51.6851 54.9641 50.9473 55.0509 49.5581L55.1811 47.2789C55.2029 46.9317 55.0293 46.4107 54.8121 46.1503L53.3579 44.3921C52.4679 43.3069 52.8369 42.1347 54.2045 41.7875L56.4183 41.2231C56.7657 41.1363 57.1997 40.8107 57.3735 40.5285L58.6107 38.5969C59.3921 37.4247 60.6075 37.4247 61.3673 38.5969Z" fill="white"/>
<path d="M133.997 97.9823C131.859 99.0431 129.021 97.6793 129.021 97.6793C129.021 97.6793 129.651 94.5963 131.791 93.5369C133.929 92.4763 136.766 93.8387 136.766 93.8387C136.766 93.8387 136.135 96.9217 133.997 97.9823Z" fill="url(#paint0_linear_420_4311)"/>
<path d="M39.0762 68.0025C41.538 69.4779 45.07 68.1141 45.07 68.1141C45.07 68.1141 44.6082 64.3585 42.1448 62.8847C39.683 61.4093 36.1526 62.7715 36.1526 62.7715C36.1526 62.7715 36.6144 66.5271 39.0762 68.0025Z" fill="url(#paint1_linear_420_4311)"/>
<path d="M80.8474 20.1997C79.7166 20.1997 78.7998 21.1165 78.7998 22.2473C78.7998 23.3782 79.7166 24.2949 80.8474 24.2949C81.9783 24.2949 82.895 23.3782 82.895 22.2473C82.895 21.1165 81.9783 20.1997 80.8474 20.1997Z" fill="#D5D9DE"/>
<path d="M67.851 101.2C65.7242 101.2 64.0002 102.924 64.0002 105.051C64.0002 107.177 65.7242 108.901 67.851 108.901C69.9777 108.901 71.7018 107.177 71.7018 105.051C71.7018 102.924 69.9777 101.2 67.851 101.2Z" fill="#D5D9DE"/>
<path d="M114.857 106.314C113.169 106.314 111.8 104.945 111.8 103.257C111.8 101.569 113.169 100.2 114.857 100.2C116.545 100.2 117.914 101.569 117.914 103.257C117.914 104.945 116.545 106.314 114.857 106.314Z" fill="#D5D9DE"/>
<path d="M47.4466 75.6928C46.3163 75.6928 45.4 74.7765 45.4 73.6462C45.4 72.5159 46.3163 71.5996 47.4466 71.5996C48.5769 71.5996 49.4932 72.5159 49.4932 73.6462C49.4932 74.7765 48.5769 75.6928 47.4466 75.6928Z" fill="#D5D9DE"/>
<path d="M40.2416 89.083C38.8932 89.083 37.8002 87.9899 37.8002 86.6416C37.8002 85.2932 38.8932 84.2002 40.2416 84.2002C41.5899 84.2002 42.683 85.2932 42.683 86.6416C42.683 87.9899 41.5899 89.083 40.2416 89.083Z" fill="#E1E4E5"/>
<path d="M138.493 27.9854C136.895 27.9854 135.6 26.6903 135.6 25.0928C135.6 23.4953 136.895 22.2002 138.493 22.2002C140.09 22.2002 141.385 23.4953 141.385 25.0928C141.385 26.6903 140.09 27.9854 138.493 27.9854Z" fill="#E1E4E5"/>
<path d="M115.436 18.272C113.428 18.272 111.8 16.6441 111.8 14.636C111.8 12.6279 113.428 11 115.436 11C117.444 11 119.072 12.6279 119.072 14.636C119.072 16.6441 117.444 18.272 115.436 18.272Z" fill="#E1E4E5"/>
<path d="M52.1265 17.3894C52.5393 18.93 51.625 20.5136 50.0843 20.9264C48.5437 21.3393 46.9601 20.425 46.5473 18.8843C46.1345 17.3437 47.0487 15.7601 48.5894 15.3473C50.13 14.9344 51.7136 15.8487 52.1265 17.3894Z" fill="#E1E4E5"/>
<path d="M143.376 76.7526C142.285 76.7526 141.4 75.8677 141.4 74.7762C141.4 73.6847 142.285 72.7998 143.376 72.7998C144.468 72.7998 145.353 73.6847 145.353 74.7762C145.353 75.8677 144.468 76.7526 143.376 76.7526Z" fill="#E1E4E5"/>
<path d="M55.7554 93.5282C54.1232 93.5282 52.8 92.4697 52.8 91.164C52.8 89.8583 54.1232 88.7998 55.7554 88.7998C57.3876 88.7998 58.7108 89.8583 58.7108 91.164C58.7108 92.4697 57.3876 93.5282 55.7554 93.5282Z" fill="#E1E4E5"/>
<defs>
<linearGradient id="paint0_linear_420_4311" x1="125.786" y1="101.291" x2="143.422" y2="87.3404" gradientUnits="userSpaceOnUse">
<stop stop-color="white"/>
<stop offset="1" stop-color="#EEEEEE"/>
</linearGradient>
<linearGradient id="paint1_linear_420_4311" x1="48.6028" y1="72.7519" x2="28.7943" y2="54.3473" gradientUnits="userSpaceOnUse">
<stop stop-color="white"/>
<stop offset="1" stop-color="#EEEEEE"/>
</linearGradient>
</defs>
</svg>
